Coordinates
version=1
nRows=27
nColumns=38
inDegrees=no

Units are S.I. units (second, meters, Newtons, ...)
If the header above contains a line with 'inDegrees', this indicates whether rotational values are in degrees (yes) or radians (no).

endheader
time	pelvis_tilt	pelvis_list	pelvis_rotation	pelvis_tx	pelvis_ty	pelvis_tz	hip_flexion_r	hip_adduction_r	hip_rotation_r	knee_angle_r	ankle_angle_r	subtalar_angle_r	mtp_angle_r	hip_flexion_l	hip_adduction_l	hip_rotation_l	knee_angle_l	ankle_angle_l	subtalar_angle_l	mtp_angle_l	lumbar_extension	lumbar_bending	lumbar_rotation	arm_flex_r	arm_add_r	arm_rot_r	elbow_flex_r	pro_sup_r	wrist_flex_r	wrist_dev_r	arm_flex_l	arm_add_l	arm_rot_l	elbow_flex_l	pro_sup_l	wrist_flex_l	wrist_dev_l
22.23	2.98534	1.23981	-1.3407	0.637852	-0.248623	0.961744	-0.403762	0.0293552	-0.00469775	0.119335	-0.321888	0	0	-0.410634	-0.104393	-0.118964	0.166691	-0.231672	0	0	-0.403065	0.0926607	0.00636515	0.0481622	-0.463471	0.390276	1.48736	1.5708	0	0	0.13489	-0.376472	0.656709	1.04055	1.5708	0	0
22.24	2.9864	1.24107	-1.34088	0.637827	-0.248619	0.961628	-0.402104	0.0290131	-0.00544645	0.11983	-0.321187	0	0	-0.408844	-0.104086	-0.118392	0.167398	-0.231121	0	0	-0.400225	0.0938102	0.0058183	0.0458164	-0.457469	0.413624	1.43523	1.5708	0	0	0.139384	-0.371455	0.689377	1.00142	1.5708	0	0
22.25	2.98783	1.24009	-1.3415	0.637791	-0.248749	0.961659	-0.402472	0.0290062	-0.0050747	0.121402	-0.32022	0	0	-0.409584	-0.104153	-0.118433	0.167589	-0.230976	0	0	-0.400195	0.0952308	0.00548177	0.0448185	-0.451099	0.43587	1.38304	1.5708	0	0	0.142704	-0.36414	0.715499	0.961754	1.5708	0	0
22.26	2.98953	1.23794	-1.34257	0.637732	-0.248973	0.961745	-0.403959	0.0292061	-0.00489065	0.123199	-0.319081	0	0	-0.411633	-0.104306	-0.11912	0.167536	-0.231013	0	0	-0.401677	0.0967108	0.00539829	0.0446086	-0.445036	0.456622	1.3318	1.5708	0	0	0.143657	-0.35489	0.733276	0.922516	1.5708	0	0
22.27	2.99147	1.23571	-1.3437	0.637664	-0.249151	0.961815	-0.405765	0.0296493	-0.00556726	0.12476	-0.317777	0	0	-0.413901	-0.104413	-0.119242	0.16726	-0.231338	0	0	-0.402935	0.0982879	0.0054107	0.0443016	-0.438388	0.474891	1.2802	1.5708	0	0	0.143045	-0.343961	0.744861	0.882763	1.5708	0	0
22.28	2.99374	1.23318	-1.34485	0.637604	-0.249271	0.961863	-0.408381	0.0299385	-0.00690064	0.125139	-0.317229	0	0	-0.416626	-0.104509	-0.118371	0.166911	-0.231375	0	0	-0.404384	0.0997701	0.00552235	0.0430863	-0.431262	0.489932	1.22866	1.5708	0	0	0.140726	-0.331401	0.749034	0.843216	1.5708	0	0
22.29	2.99638	1.22978	-1.34654	0.637534	-0.249492	0.961945	-0.411982	0.0299267	-0.0077837	0.125002	-0.317322	0	0	-0.420227	-0.104627	-0.118137	0.166695	-0.23122	0	0	-0.407206	0.100722	0.00603044	0.0416565	-0.423922	0.502089	1.17718	1.5708	0	0	0.137909	-0.318291	0.748131	0.804333	1.5708	0	0
22.3	2.99946	1.2256	-1.34868	0.637492	-0.249782	0.962064	-0.416564	0.0301958	-0.0087377	0.124664	-0.317507	0	0	-0.424582	-0.104852	-0.118461	0.166666	-0.231017	0	0	-0.411231	0.101165	0.00677822	0.0403801	-0.416016	0.511334	1.12547	1.5708	0	0	0.135007	-0.306331	0.744792	0.76751	1.5708	0	0
22.31	3.00363	1.22097	-1.35166	0.637431	-0.250167	0.962225	-0.421644	0.0299644	-0.00994056	0.124159	-0.318115	0	0	-0.429354	-0.104828	-0.118377	0.166505	-0.231289	0	0	-0.415994	0.101309	0.00758055	0.0395671	-0.408281	0.519432	1.07407	1.5708	0	0	0.133285	-0.295252	0.741804	0.732457	1.5708	0	0
22.32	3.00827	1.21655	-1.35508	0.637364	-0.250515	0.962362	-0.426665	0.0295677	-0.0114362	0.123563	-0.318515	0	0	-0.434053	-0.104615	-0.118747	0.165977	-0.231894	0	0	-0.420186	0.101251	0.00862468	0.0386411	-0.401081	0.527337	1.02395	1.5708	0	0	0.133814	-0.285661	0.743872	0.698742	1.5708	0	0
22.33	3.0103	1.21242	-1.35689	0.637431	-0.250703	0.962442	-0.431414	0.0299559	-0.0119324	0.122671	-0.318794	0	0	-0.438849	-0.104937	-0.119356	0.165135	-0.232147	0	0	-0.423125	0.101683	0.0111388	0.03644	-0.39441	0.532676	0.976159	1.5708	0	0	0.136757	-0.277678	0.753979	0.66661	1.5708	0	0
22.34	3.01209	1.20882	-1.35819	0.637439	-0.250993	0.962523	-0.435053	0.0303017	-0.0144918	0.122536	-0.319261	0	0	-0.442562	-0.105307	-0.11951	0.165001	-0.232174	0	0	-0.425414	0.102337	0.0138631	0.0333983	-0.388711	0.535279	0.93166	1.5708	0	0	0.142152	-0.272003	0.772921	0.638069	1.5708	0	0
22.35	3.01373	1.2058	-1.3593	0.637418	-0.251321	0.96259	-0.437715	0.0305082	-0.0179601	0.123021	-0.319687	0	0	-0.445358	-0.10562	-0.119742	0.165307	-0.232051	0	0	-0.426908	0.102991	0.016818	0.0294786	-0.383626	0.535382	0.890369	1.5708	0	0	0.149184	-0.268565	0.799392	0.613656	1.5708	0	0
22.36	3.01732	1.20292	-1.36171	0.637259	-0.251484	0.962637	-0.441729	0.0300808	-0.0173135	0.121741	-0.319625	0	0	-0.448389	-0.105268	-0.119691	0.165176	-0.232053	0	0	-0.428382	0.103561	0.0175627	0.0252657	-0.378895	0.533686	0.8527	1.5708	0	0	0.155391	-0.267677	0.828839	0.595235	1.5708	0	0
22.37	3.0199	1.20051	-1.36342	0.637121	-0.251635	0.962691	-0.444995	0.0298276	-0.0165545	0.120775	-0.319638	0	0	-0.450967	-0.105033	-0.119562	0.164865	-0.232233	0	0	-0.429202	0.104379	0.0187616	0.019798	-0.374641	0.52923	0.818924	1.5708	0	0	0.16203	-0.266618	0.859042	0.578653	1.5708	0	0
22.38	3.02129	1.1991	-1.36412	0.637031	-0.251785	0.962723	-0.446671	0.0297758	-0.0166604	0.120537	-0.319822	0	0	-0.452274	-0.105007	-0.119168	0.164822	-0.232424	0	0	-0.428937	0.105084	0.0199301	0.0129909	-0.371518	0.523698	0.791267	1.5708	0	0	0.167111	-0.266725	0.884804	0.566801	1.5708	0	0
22.39	3.02232	1.19808	-1.36456	0.636965	-0.251931	0.962752	-0.447678	0.0297503	-0.0169055	0.120753	-0.319767	0	0	-0.453093	-0.105018	-0.118931	0.164986	-0.232442	0	0	-0.428536	0.105488	0.0205384	0.00558739	-0.369102	0.517408	0.768447	1.5708	0	0	0.168782	-0.268178	0.899629	0.561426	1.5708	0	0
22.4	3.02353	1.19768	-1.36506	0.636905	-0.252035	0.962775	-0.448053	0.0296286	-0.0171334	0.121002	-0.319605	0	0	-0.453202	-0.104903	-0.11862	0.165387	-0.232347	0	0	-0.427417	0.105389	0.0209524	-0.00254641	-0.367011	0.509387	0.749258	1.5708	0	0	0.169422	-0.271011	0.911442	0.56075	1.5708	0	0
22.41	3.02509	1.19769	-1.36575	0.636838	-0.252128	0.962804	-0.447967	0.0293647	-0.0176573	0.121428	-0.319363	0	0	-0.452852	-0.104627	-0.118169	0.165726	-0.232464	0	0	-0.426025	0.104754	0.0209386	-0.0113923	-0.365175	0.499065	0.734537	1.5708	0	0	0.168615	-0.274773	0.917611	0.564114	1.5708	0	0
22.42	3.02603	1.19785	-1.36614	0.636777	-0.252235	0.96282	-0.447596	0.0291396	-0.0172172	0.122016	-0.319196	0	0	-0.452455	-0.104419	-0.118045	0.165774	-0.232715	0	0	-0.424578	0.10406	0.0209438	-0.0202886	-0.364642	0.489634	0.724746	1.5708	0	0	0.16603	-0.279364	0.917195	0.570919	1.5708	0	0
22.43	3.02677	1.19811	-1.3666	0.636767	-0.25236	0.962824	-0.446914	0.0288843	-0.0162827	0.122982	-0.318836	0	0	-0.452124	-0.104152	-0.117721	0.165437	-0.233048	0	0	-0.423298	0.103042	0.0210692	-0.0290162	-0.364004	0.479711	0.718431	1.5708	0	0	0.162101	-0.284848	0.910766	0.581434	1.5708	0	0
22.44	3.02715	1.19858	-1.36693	0.636784	-0.252508	0.962832	-0.445865	0.0286501	-0.0150809	0.124088	-0.318318	0	0	-0.451571	-0.103885	-0.117408	0.165093	-0.233394	0	0	-0.422021	0.102017	0.0210541	-0.0375776	-0.363899	0.469595	0.716621	1.5708	0	0	0.156676	-0.289364	0.896151	0.593033	1.5708	0	0
22.45	3.02611	1.20013	-1.36607	0.636787	-0.252633	0.96284	-0.443313	0.0285794	-0.0131542	0.125704	-0.317665	0	0	-0.449684	-0.103831	-0.117281	0.164901	-0.233855	0	0	-0.421444	0.101463	0.0203483	-0.0458344	-0.364281	0.457809	0.720072	1.5708	0	0	0.148663	-0.293559	0.872142	0.607262	1.5708	0	0
22.46	3.02433	1.20189	-1.36425	0.636737	-0.252729	0.962842	-0.440481	0.0287865	-0.0116089	0.127358	-0.317028	0	0	-0.447378	-0.104142	-0.117228	0.165054	-0.23424	0	0	-0.420474	0.101372	0.0188921	-0.0533802	-0.364944	0.446847	0.726259	1.5708	0	0	0.139285	-0.29733	0.844937	0.622217	1.5708	0	0
22.47	3.02424	1.20367	-1.3633	0.636624	-0.252724	0.962787	-0.438198	0.0286918	-0.0121149	0.128277	-0.316418	0	0	-0.445045	-0.104199	-0.11666	0.165511	-0.23446	0	0	-0.419506	0.100908	0.0156847	-0.0603009	-0.365322	0.436181	0.73499	1.5708	0	0	0.127844	-0.301032	0.812604	0.639285	1.5708	0	0
22.48	3.02456	1.20483	-1.36319	0.636591	-0.252738	0.962754	-0.436652	0.028513	-0.0120583	0.128925	-0.315974	0	0	-0.443599	-0.104105	-0.116576	0.165703	-0.23462	0	0	-0.419125	0.100054	0.0126247	-0.0658747	-0.365974	0.4283	0.745034	1.5708	0	0	0.117333	-0.304202	0.781357	0.6561	1.5708	0	0
22.49	3.02407	1.20558	-1.36292	0.636647	-0.252761	0.962778	-0.435525	0.0287869	-0.0110813	0.129411	-0.315653	0	0	-0.442799	-0.104158	-0.117147	0.165484	-0.234803	0	0	-0.418397	0.0993086	0.010627	-0.0701056	-0.366825	0.423399	0.754609	1.5708	0	0	0.110278	-0.306707	0.75799	0.669528	1.5708	0	0
